# xmcd
#
# Track frame offsets:
#	150
#	14626
#	26371
#	39101
#	53481
#	66015
#	77368
#	90251
#	106028
#	120888
#	138142
#	153995
#	168767
#	183082
#	195566
#	211437
#	225731
#
# Disc length: 3192 seconds
#
# Revision: 1
# Processed by: cddbd v1.4PL0 Copyright (c) Steve Scherf et al.
# Submitted via: audiograbber 1.82.01
#
DISCID=b50c7611
DTITLE=Truck Stop - Take It
DYEAR=1900
DGENRE=
TTITLE0=Bleib doch hier heut Nacht
TTITLE1=Bleifuß Joe
TTITLE2=Cops und Trucker
TTITLE3=Der König von der Autobahn
TTITLE4=Der wilde wilde Westen
TTITLE5=Großstadtrevier
TTITLE6=Die Frau mit dem Gurt
TTITLE7=Du bist der absolute Wahnsinn
TTITLE8=Easy Rider
TTITLE9=Eine Gitarre und eine Ukulele
TTITLE10=Franky wollte Cowboy werden
TTITLE11=Geistertruck
TTITLE12=Happy Birthday
TTITLE13=He mach mal ne Pause
TTITLE14=Hier spricht der Truck
TTITLE15=Dann kommt Country Musik
TTITLE16=Hillibilly Country Lilly
EXTD=
EXTT0=
EXTT1=
EXTT2=
EXTT3=
EXTT4=
EXTT5=
EXTT6=
EXTT7=
EXTT8=
EXTT9=
EXTT10=
EXTT11=
EXTT12=
EXTT13=
EXTT14=
EXTT15=
EXTT16=
PLAYORDER=
